<?xml version="1.0" encoding="UTF-8" standalone="no"?>
<svg xmlns="http://www.w3.org/2000/svg" version="1.1" width="231pt" height="100pt">
<rect x="0pt" y="0pt" width="231pt" height="100pt" style="fill:#ffffff;fill-opacity:1" />
<!-- Printing barcode for "1 UNION SELECT 1", scaled  1.00, encoded using "code 128-B" -->
<!-- The space/bar succession is represented by the following widths (space first): 02112141232212122222131311133212313111331211133212122222131131321131321311321131313212133112122221232213311212331112 -->
<line x1="11.000000pt" y1="85.000000pt" x2="11.000000pt" y2="10.000000pt" style="stroke:rgb(0,0,0);stroke-width:1.850000pt" />
<line x1="13.500000pt" y1="85.000000pt" x2="13.500000pt" y2="10.000000pt" style="stroke:rgb(0,0,0);stroke-width:0.850000pt" />
<line x1="16.500000pt" y1="85.000000pt" x2="16.500000pt" y2="10.000000pt" style="stroke:rgb(0,0,0);stroke-width:0.850000pt" />
<line x1="21.500000pt" y1="80.000000pt" x2="21.500000pt" y2="10.000000pt" style="stroke:rgb(0,0,0);stroke-width:0.850000pt" />
<line x1="25.500000pt" y1="80.000000pt" x2="25.500000pt" y2="10.000000pt" style="stroke:rgb(0,0,0);stroke-width:2.850000pt" />
<line x1="30.000000pt" y1="80.000000pt" x2="30.000000pt" y2="10.000000pt" style="stroke:rgb(0,0,0);stroke-width:1.850000pt" />
<line x1="33.000000pt" y1="80.000000pt" x2="33.000000pt" y2="10.000000pt" style="stroke:rgb(0,0,0);stroke-width:1.850000pt" />
<line x1="36.000000pt" y1="80.000000pt" x2="36.000000pt" y2="10.000000pt" style="stroke:rgb(0,0,0);stroke-width:1.850000pt" />
<line x1="40.000000pt" y1="80.000000pt" x2="40.000000pt" y2="10.000000pt" style="stroke:rgb(0,0,0);stroke-width:1.850000pt" />
<line x1="44.000000pt" y1="80.000000pt" x2="44.000000pt" y2="10.000000pt" style="stroke:rgb(0,0,0);stroke-width:1.850000pt" />
<line x1="47.500000pt" y1="80.000000pt" x2="47.500000pt" y2="10.000000pt" style="stroke:rgb(0,0,0);stroke-width:2.850000pt" />
<line x1="51.500000pt" y1="80.000000pt" x2="51.500000pt" y2="10.000000pt" style="stroke:rgb(0,0,0);stroke-width:2.850000pt" />
<line x1="54.500000pt" y1="80.000000pt" x2="54.500000pt" y2="10.000000pt" style="stroke:rgb(0,0,0);stroke-width:0.850000pt" />
<line x1="57.500000pt" y1="80.000000pt" x2="57.500000pt" y2="10.000000pt" style="stroke:rgb(0,0,0);stroke-width:2.850000pt" />
<line x1="63.000000pt" y1="80.000000pt" x2="63.000000pt" y2="10.000000pt" style="stroke:rgb(0,0,0);stroke-width:1.850000pt" />
<line x1="66.000000pt" y1="80.000000pt" x2="66.000000pt" y2="10.000000pt" style="stroke:rgb(0,0,0);stroke-width:1.850000pt" />
<line x1="70.500000pt" y1="80.000000pt" x2="70.500000pt" y2="10.000000pt" style="stroke:rgb(0,0,0);stroke-width:0.850000pt" />
<line x1="74.500000pt" y1="80.000000pt" x2="74.500000pt" y2="10.000000pt" style="stroke:rgb(0,0,0);stroke-width:0.850000pt" />
<line x1="76.500000pt" y1="80.000000pt" x2="76.500000pt" y2="10.000000pt" style="stroke:rgb(0,0,0);stroke-width:0.850000pt" />
<line x1="81.500000pt" y1="80.000000pt" x2="81.500000pt" y2="10.000000pt" style="stroke:rgb(0,0,0);stroke-width:2.850000pt" />
<line x1="85.000000pt" y1="80.000000pt" x2="85.000000pt" y2="10.000000pt" style="stroke:rgb(0,0,0);stroke-width:1.850000pt" />
<line x1="87.500000pt" y1="80.000000pt" x2="87.500000pt" y2="10.000000pt" style="stroke:rgb(0,0,0);stroke-width:0.850000pt" />
<line x1="90.500000pt" y1="80.000000pt" x2="90.500000pt" y2="10.000000pt" style="stroke:rgb(0,0,0);stroke-width:2.850000pt" />
<line x1="96.000000pt" y1="80.000000pt" x2="96.000000pt" y2="10.000000pt" style="stroke:rgb(0,0,0);stroke-width:1.850000pt" />
<line x1="99.000000pt" y1="80.000000pt" x2="99.000000pt" y2="10.000000pt" style="stroke:rgb(0,0,0);stroke-width:1.850000pt" />
<line x1="102.000000pt" y1="80.000000pt" x2="102.000000pt" y2="10.000000pt" style="stroke:rgb(0,0,0);stroke-width:1.850000pt" />
<line x1="106.000000pt" y1="80.000000pt" x2="106.000000pt" y2="10.000000pt" style="stroke:rgb(0,0,0);stroke-width:1.850000pt" />
<line x1="110.000000pt" y1="80.000000pt" x2="110.000000pt" y2="10.000000pt" style="stroke:rgb(0,0,0);stroke-width:1.850000pt" />
<line x1="113.500000pt" y1="80.000000pt" x2="113.500000pt" y2="10.000000pt" style="stroke:rgb(0,0,0);stroke-width:2.850000pt" />
<line x1="116.500000pt" y1="80.000000pt" x2="116.500000pt" y2="10.000000pt" style="stroke:rgb(0,0,0);stroke-width:0.850000pt" />
<line x1="120.500000pt" y1="80.000000pt" x2="120.500000pt" y2="10.000000pt" style="stroke:rgb(0,0,0);stroke-width:0.850000pt" />
<line x1="125.000000pt" y1="80.000000pt" x2="125.000000pt" y2="10.000000pt" style="stroke:rgb(0,0,0);stroke-width:1.850000pt" />
<line x1="127.500000pt" y1="80.000000pt" x2="127.500000pt" y2="10.000000pt" style="stroke:rgb(0,0,0);stroke-width:0.850000pt" />
<line x1="131.500000pt" y1="80.000000pt" x2="131.500000pt" y2="10.000000pt" style="stroke:rgb(0,0,0);stroke-width:0.850000pt" />
<line x1="136.000000pt" y1="80.000000pt" x2="136.000000pt" y2="10.000000pt" style="stroke:rgb(0,0,0);stroke-width:1.850000pt" />
<line x1="139.500000pt" y1="80.000000pt" x2="139.500000pt" y2="10.000000pt" style="stroke:rgb(0,0,0);stroke-width:2.850000pt" />
<line x1="142.500000pt" y1="80.000000pt" x2="142.500000pt" y2="10.000000pt" style="stroke:rgb(0,0,0);stroke-width:0.850000pt" />
<line x1="147.000000pt" y1="80.000000pt" x2="147.000000pt" y2="10.000000pt" style="stroke:rgb(0,0,0);stroke-width:1.850000pt" />
<line x1="149.500000pt" y1="80.000000pt" x2="149.500000pt" y2="10.000000pt" style="stroke:rgb(0,0,0);stroke-width:0.850000pt" />
<line x1="153.500000pt" y1="80.000000pt" x2="153.500000pt" y2="10.000000pt" style="stroke:rgb(0,0,0);stroke-width:0.850000pt" />
<line x1="157.500000pt" y1="80.000000pt" x2="157.500000pt" y2="10.000000pt" style="stroke:rgb(0,0,0);stroke-width:0.850000pt" />
<line x1="162.000000pt" y1="80.000000pt" x2="162.000000pt" y2="10.000000pt" style="stroke:rgb(0,0,0);stroke-width:1.850000pt" />
<line x1="165.000000pt" y1="80.000000pt" x2="165.000000pt" y2="10.000000pt" style="stroke:rgb(0,0,0);stroke-width:1.850000pt" />
<line x1="168.500000pt" y1="80.000000pt" x2="168.500000pt" y2="10.000000pt" style="stroke:rgb(0,0,0);stroke-width:2.850000pt" />
<line x1="173.500000pt" y1="80.000000pt" x2="173.500000pt" y2="10.000000pt" style="stroke:rgb(0,0,0);stroke-width:0.850000pt" />
<line x1="176.000000pt" y1="80.000000pt" x2="176.000000pt" y2="10.000000pt" style="stroke:rgb(0,0,0);stroke-width:1.850000pt" />
<line x1="179.000000pt" y1="80.000000pt" x2="179.000000pt" y2="10.000000pt" style="stroke:rgb(0,0,0);stroke-width:1.850000pt" />
<line x1="183.000000pt" y1="80.000000pt" x2="183.000000pt" y2="10.000000pt" style="stroke:rgb(0,0,0);stroke-width:1.850000pt" />
<line x1="186.500000pt" y1="80.000000pt" x2="186.500000pt" y2="10.000000pt" style="stroke:rgb(0,0,0);stroke-width:0.850000pt" />
<line x1="190.500000pt" y1="80.000000pt" x2="190.500000pt" y2="10.000000pt" style="stroke:rgb(0,0,0);stroke-width:2.850000pt" />
<line x1="195.000000pt" y1="80.000000pt" x2="195.000000pt" y2="10.000000pt" style="stroke:rgb(0,0,0);stroke-width:1.850000pt" />
<line x1="198.500000pt" y1="80.000000pt" x2="198.500000pt" y2="10.000000pt" style="stroke:rgb(0,0,0);stroke-width:2.850000pt" />
<line x1="203.500000pt" y1="80.000000pt" x2="203.500000pt" y2="10.000000pt" style="stroke:rgb(0,0,0);stroke-width:0.850000pt" />
<line x1="206.000000pt" y1="80.000000pt" x2="206.000000pt" y2="10.000000pt" style="stroke:rgb(0,0,0);stroke-width:1.850000pt" />
<line x1="209.000000pt" y1="85.000000pt" x2="209.000000pt" y2="10.000000pt" style="stroke:rgb(0,0,0);stroke-width:1.850000pt" />
<line x1="214.500000pt" y1="85.000000pt" x2="214.500000pt" y2="10.000000pt" style="stroke:rgb(0,0,0);stroke-width:2.850000pt" />
<line x1="217.500000pt" y1="85.000000pt" x2="217.500000pt" y2="10.000000pt" style="stroke:rgb(0,0,0);stroke-width:0.850000pt" />
<line x1="220.000000pt" y1="85.000000pt" x2="220.000000pt" y2="10.000000pt" style="stroke:rgb(0,0,0);stroke-width:1.850000pt" />
<text x="21.000000pt" y="90.000000pt" fill="black" style="font-family:Helvetica;font-size:12pt">1</text>
<text x="32.000000pt" y="90.000000pt" fill="black" style="font-family:Helvetica;font-size:12pt"> </text>
<text x="43.000000pt" y="90.000000pt" fill="black" style="font-family:Helvetica;font-size:12pt">U</text>
<text x="54.000000pt" y="90.000000pt" fill="black" style="font-family:Helvetica;font-size:12pt">N</text>
<text x="65.000000pt" y="90.000000pt" fill="black" style="font-family:Helvetica;font-size:12pt">I</text>
<text x="76.000000pt" y="90.000000pt" fill="black" style="font-family:Helvetica;font-size:12pt">O</text>
<text x="87.000000pt" y="90.000000pt" fill="black" style="font-family:Helvetica;font-size:12pt">N</text>
<text x="98.000000pt" y="90.000000pt" fill="black" style="font-family:Helvetica;font-size:12pt"> </text>
<text x="109.000000pt" y="90.000000pt" fill="black" style="font-family:Helvetica;font-size:12pt">S</text>
<text x="120.000000pt" y="90.000000pt" fill="black" style="font-family:Helvetica;font-size:12pt">E</text>
<text x="131.000000pt" y="90.000000pt" fill="black" style="font-family:Helvetica;font-size:12pt">L</text>
<text x="142.000000pt" y="90.000000pt" fill="black" style="font-family:Helvetica;font-size:12pt">E</text>
<text x="153.000000pt" y="90.000000pt" fill="black" style="font-family:Helvetica;font-size:12pt">C</text>
<text x="164.000000pt" y="90.000000pt" fill="black" style="font-family:Helvetica;font-size:12pt">T</text>
<text x="175.000000pt" y="90.000000pt" fill="black" style="font-family:Helvetica;font-size:12pt"> </text>
<text x="186.000000pt" y="90.000000pt" fill="black" style="font-family:Helvetica;font-size:12pt">1</text>
<!-- End barcode for "1 UNION SELECT 1" -->

</svg>
